G04 #@! TF.FileFunction,Soldermask,Top*
%FSLAX46Y46*%
G04 Gerber Fmt 4.6, Leading zero omitted, Abs format (unit mm)*
G04 Created by KiCad (PCBNEW 4.0.7) date 03/27/18 13:34:48*
%MOMM*%
%LPD*%
G01*
G04 APERTURE LIST*
%ADD10C,0.100000*%
%ADD11C,4.464000*%
%ADD12R,1.400000X1.650000*%
%ADD13R,2.600000X1.600000*%
%ADD14R,6.800000X6.200000*%
%ADD15R,2.100000X2.100000*%
%ADD16O,2.100000X2.100000*%
%ADD17R,2.400000X2.400000*%
%ADD18C,2.400000*%
%ADD19R,1.100000X1.700000*%
%ADD20R,2.200000X1.950000*%
G04 APERTURE END LIST*
D10*
D11*
X134500000Y-51500000D03*
D12*
X119000000Y-61500000D03*
X117000000Y-61500000D03*
D13*
X121060000Y-53695000D03*
X121060000Y-55975000D03*
X121060000Y-58255000D03*
D14*
X127360000Y-55975000D03*
D15*
X106000000Y-74750000D03*
D16*
X106000000Y-77290000D03*
D15*
X118250000Y-71250000D03*
D16*
X118250000Y-73790000D03*
X118250000Y-76330000D03*
X118250000Y-78870000D03*
X118250000Y-81410000D03*
X118250000Y-83950000D03*
X118250000Y-86490000D03*
X118250000Y-89030000D03*
X118250000Y-91570000D03*
X118250000Y-94110000D03*
X118250000Y-96650000D03*
X118250000Y-99190000D03*
X118250000Y-101730000D03*
X118250000Y-104270000D03*
X118250000Y-106810000D03*
D15*
X133500000Y-71250000D03*
D16*
X133500000Y-73790000D03*
X133500000Y-76330000D03*
X133500000Y-78870000D03*
X133500000Y-81410000D03*
X133500000Y-83950000D03*
X133500000Y-86490000D03*
X133500000Y-89030000D03*
X133500000Y-91570000D03*
X133500000Y-94110000D03*
X133500000Y-96650000D03*
X133500000Y-99190000D03*
X133500000Y-101730000D03*
X133500000Y-104270000D03*
X133500000Y-106810000D03*
D17*
X109250000Y-54500000D03*
D18*
X109250000Y-59500000D03*
D15*
X106000000Y-84750000D03*
D16*
X106000000Y-87290000D03*
X106000000Y-89830000D03*
D15*
X106000000Y-97250000D03*
D16*
X106000000Y-99790000D03*
X106000000Y-102330000D03*
D15*
X112000000Y-67500000D03*
D16*
X112000000Y-70040000D03*
X112000000Y-72580000D03*
X112000000Y-75120000D03*
X112000000Y-77660000D03*
X112000000Y-80200000D03*
X112000000Y-82740000D03*
X112000000Y-85280000D03*
X112000000Y-87820000D03*
X112000000Y-90360000D03*
X112000000Y-92900000D03*
X112000000Y-95440000D03*
X112000000Y-97980000D03*
X112000000Y-100520000D03*
X112000000Y-103060000D03*
X112000000Y-105600000D03*
D19*
X123950000Y-61500000D03*
X122050000Y-61500000D03*
X123950000Y-64000000D03*
X122050000Y-64000000D03*
D20*
X117000000Y-57475000D03*
X117000000Y-55125000D03*
D11*
X105500000Y-109500000D03*
X126000000Y-109500000D03*
M02*
