M48
METRIC,TZ
T1C0.800
T2C1.000
T3C3.200
%
G90
G05
T1
X117.Y-61.5
X120.25Y-63.5
X122.05Y-61.5
X123.95Y-61.5
X133.5Y-91.57
T2
X106.Y-74.75
X106.Y-77.29
X106.Y-84.75
X106.Y-87.29
X106.Y-89.83
X106.Y-97.25
X106.Y-99.79
X106.Y-102.33
X109.25Y-54.5
X109.25Y-59.5
X112.Y-67.5
X112.Y-70.04
X112.Y-72.58
X112.Y-75.12
X112.Y-77.66
X112.Y-80.2
X112.Y-82.74
X112.Y-85.28
X112.Y-87.82
X112.Y-90.36
X112.Y-92.9
X112.Y-95.44
X112.Y-97.98
X112.Y-100.52
X112.Y-103.06
X112.Y-105.6
X118.25Y-71.25
X118.25Y-73.79
X118.25Y-76.33
X118.25Y-78.87
X118.25Y-81.41
X118.25Y-83.95
X118.25Y-86.49
X118.25Y-89.03
X118.25Y-91.57
X118.25Y-94.11
X118.25Y-96.65
X118.25Y-99.19
X118.25Y-101.73
X118.25Y-104.27
X118.25Y-106.81
X133.5Y-71.25
X133.5Y-73.79
X133.5Y-76.33
X133.5Y-78.87
X133.5Y-81.41
X133.5Y-83.95
X133.5Y-86.49
X133.5Y-89.03
X133.5Y-91.57
X133.5Y-94.11
X133.5Y-96.65
X133.5Y-99.19
X133.5Y-101.73
X133.5Y-104.27
X133.5Y-106.81
T3
X105.5Y-109.5
X126.Y-109.5
X134.5Y-51.5
T0
M30
