G04 #@! TF.FileFunction,Copper,L2,Bot,Signal*
%FSLAX46Y46*%
G04 Gerber Fmt 4.6, Leading zero omitted, Abs format (unit mm)*
G04 Created by KiCad (PCBNEW 4.0.7) date 03/27/18 13:34:48*
%MOMM*%
%LPD*%
G01*
G04 APERTURE LIST*
%ADD10C,0.100000*%
%ADD11C,4.064000*%
%ADD12R,1.700000X1.700000*%
%ADD13O,1.700000X1.700000*%
%ADD14R,2.000000X2.000000*%
%ADD15C,2.000000*%
%ADD16C,1.000000*%
%ADD17C,1.000000*%
G04 APERTURE END LIST*
D10*
D11*
X134500000Y-51500000D03*
D12*
X106000000Y-74750000D03*
D13*
X106000000Y-77290000D03*
D12*
X118250000Y-71250000D03*
D13*
X118250000Y-73790000D03*
X118250000Y-76330000D03*
X118250000Y-78870000D03*
X118250000Y-81410000D03*
X118250000Y-83950000D03*
X118250000Y-86490000D03*
X118250000Y-89030000D03*
X118250000Y-91570000D03*
X118250000Y-94110000D03*
X118250000Y-96650000D03*
X118250000Y-99190000D03*
X118250000Y-101730000D03*
X118250000Y-104270000D03*
X118250000Y-106810000D03*
D12*
X133500000Y-71250000D03*
D13*
X133500000Y-73790000D03*
X133500000Y-76330000D03*
X133500000Y-78870000D03*
X133500000Y-81410000D03*
X133500000Y-83950000D03*
X133500000Y-86490000D03*
X133500000Y-89030000D03*
X133500000Y-91570000D03*
X133500000Y-94110000D03*
X133500000Y-96650000D03*
X133500000Y-99190000D03*
X133500000Y-101730000D03*
X133500000Y-104270000D03*
X133500000Y-106810000D03*
D14*
X109250000Y-54500000D03*
D15*
X109250000Y-59500000D03*
D12*
X106000000Y-84750000D03*
D13*
X106000000Y-87290000D03*
X106000000Y-89830000D03*
D12*
X106000000Y-97250000D03*
D13*
X106000000Y-99790000D03*
X106000000Y-102330000D03*
D12*
X112000000Y-67500000D03*
D13*
X112000000Y-70040000D03*
X112000000Y-72580000D03*
X112000000Y-75120000D03*
X112000000Y-77660000D03*
X112000000Y-80200000D03*
X112000000Y-82740000D03*
X112000000Y-85280000D03*
X112000000Y-87820000D03*
X112000000Y-90360000D03*
X112000000Y-92900000D03*
X112000000Y-95440000D03*
X112000000Y-97980000D03*
X112000000Y-100520000D03*
X112000000Y-103060000D03*
X112000000Y-105600000D03*
D11*
X105500000Y-109500000D03*
X126000000Y-109500000D03*
D16*
X122050000Y-61500000D03*
X117000000Y-61500000D03*
X133500000Y-91570000D03*
X120250000Y-63500000D03*
X123950000Y-61500000D03*
D17*
X112000000Y-103060000D02*
X113550001Y-101509999D01*
X113550001Y-101509999D02*
X113550001Y-71590001D01*
X113550001Y-71590001D02*
X112849999Y-70889999D01*
X112849999Y-70889999D02*
X112000000Y-70040000D01*
X118250000Y-91570000D02*
X115196149Y-94623851D01*
X115196149Y-94623851D02*
X115196149Y-104697853D01*
X115196149Y-104697853D02*
X112744001Y-107150001D01*
X112744001Y-107150001D02*
X111255999Y-107150001D01*
X111255999Y-107150001D02*
X108557911Y-104451913D01*
X108557911Y-104451913D02*
X108557911Y-97957911D01*
X108557911Y-97957911D02*
X107850000Y-97250000D01*
X107850000Y-97250000D02*
X106000000Y-97250000D01*
X106000000Y-84750000D02*
X104730000Y-84750000D01*
X109216141Y-108350010D02*
X113241062Y-108350010D01*
X104730000Y-84750000D02*
X104650000Y-84670000D01*
X104650000Y-84670000D02*
X103749988Y-85570012D01*
X103749988Y-85570012D02*
X103749988Y-102883857D01*
X103749988Y-102883857D02*
X109216141Y-108350010D01*
X113241062Y-108350010D02*
X116500000Y-105091072D01*
X116500000Y-105091072D02*
X116500000Y-95860000D01*
X116500000Y-95860000D02*
X117400001Y-94959999D01*
X117400001Y-94959999D02*
X118250000Y-94110000D01*
X122050000Y-61500000D02*
X117000000Y-61500000D01*
X112000000Y-95440000D02*
X111610000Y-95440000D01*
X111610000Y-95440000D02*
X106000000Y-89830000D01*
X112000000Y-95440000D02*
X112000000Y-95250000D01*
X117000000Y-61500000D02*
X117000000Y-63125000D01*
X117000000Y-63125000D02*
X127665000Y-73790000D01*
X127665000Y-73790000D02*
X132297919Y-73790000D01*
X132297919Y-73790000D02*
X133500000Y-73790000D01*
X120250000Y-63500000D02*
X121950000Y-63500000D01*
X121950000Y-63500000D02*
X123950000Y-61500000D01*
M02*
